<svg xmlns="http://www.w3.org/2000/svg" viewBox="0 0 246.32355 40.75815"><defs><style>.cls-1{fill:#00aeea;}.cls-2{fill:none;stroke:#0072b4;stroke-linecap:round;stroke-linejoin:round;stroke-width:3px;}.cls-3{fill:#0072b4;}</style></defs><title>Placemaker_logo_1_sidexside</title><g id="Layer_2" data-name="Layer 2"><g id="Layer_1-2" data-name="Layer 1"><path class="cls-1" d="M38.547,19.77768,23.48991,7.10441a1.66659,1.66659,0,0,0-2.14648,0L6.28636,19.77768a1.66669,1.66669,0,0,0-.59344,1.27515V39.09147a1.66669,1.66669,0,0,0,1.66663,1.66669h3.83337a1.66671,1.66671,0,0,0,1.66669-1.66669V24.82761a4.53765,4.53765,0,0,1,3.95557-4.59125,4.38624,4.38624,0,0,1,4.79443,4.35516V39.09147a1.66669,1.66669,0,0,0,1.66663,1.66669H37.4738a1.66669,1.66669,0,0,0,1.66663-1.66669V21.05283A1.66669,1.66669,0,0,0,38.547,19.77768Zm-8.19781,8.81384a4.25,4.25,0,1,1,4.25-4.25A4.25,4.25,0,0,1,30.34916,28.59153Z"/><path class="cls-2" d="M1.5,19.38319,22.417,1.5c4.14183,3.54159,20.91638,17.88319,20.91638,17.88319"/><path class="cls-1" d="M54.02472,27.32037v7.63477H49.99005V13.26568H57.055a12.3831,12.3831,0,0,1,3.76465.50977,7.25248,7.25248,0,0,1,2.625,1.4248,5.57765,5.57765,0,0,1,1.53027,2.19043,8.15142,8.15142,0,0,1-.03027,5.67676,5.988,5.988,0,0,1-1.57471,2.25781,7.329,7.329,0,0,1-2.625,1.46973,11.673,11.673,0,0,1-3.68994.52539Zm0-3.15039H57.055a6.06649,6.06649,0,0,0,1.93506-.27734,3.59187,3.59187,0,0,0,1.36475-.79492,3.25929,3.25929,0,0,0,.81006-1.25977,4.81992,4.81992,0,0,0,.27-1.65723,4.36973,4.36973,0,0,0-.27-1.5752,3.12034,3.12034,0,0,0-.81006-1.2002,3.61253,3.61253,0,0,0-1.36475-.75781A6.41112,6.41112,0,0,0,57.055,16.3858H54.02472Z"/><path class="cls-1" d="M72.64,31.62506H81.325v3.33008H68.6048V13.26568H72.64Z"/><path class="cls-1" d="M103.1795,34.95513h-3.12012a1.3583,1.3583,0,0,1-.8623-.2627,1.48277,1.48277,0,0,1-.4873-.65234l-1.62012-4.4248H88.1048l-1.62012,4.4248A1.41622,1.41622,0,0,1,86.012,34.67a1.32507,1.32507,0,0,1-.8623.28516H82.01447l8.52-21.68945h4.125Zm-14.04-8.18945h6.915l-2.63965-7.21484q-.18018-.48047-.39795-1.13281-.21753-.65332-.42725-1.418-.21021.76611-.4126,1.42578-.20215.65918-.39746,1.1543Z"/><path class="cls-1" d="M119.55988,29.8399a.75831.75831,0,0,1,.56982.25586l1.58984,1.72461a8.73509,8.73509,0,0,1-3.24707,2.50488,11.19147,11.19147,0,0,1-4.62793.87012,10.93648,10.93648,0,0,1-4.34229-.8252,9.55747,9.55747,0,0,1-3.29248-2.29492,10.03351,10.03351,0,0,1-2.09229-3.50977,13.1671,13.1671,0,0,1-.72754-4.45508A11.99293,11.99293,0,0,1,104.2,19.63287a10.10743,10.10743,0,0,1,5.79736-5.79,12.0941,12.0941,0,0,1,4.52246-.81738,10.68787,10.68787,0,0,1,4.22266.77246,9.85418,9.85418,0,0,1,3.09717,2.04785l-1.3501,1.875a1.23371,1.23371,0,0,1-.30713.31445.87458.87458,0,0,1-.51758.13477,1.1806,1.1806,0,0,1-.70508-.26953,8.7866,8.7866,0,0,0-.915-.585,7.44384,7.44384,0,0,0-1.40234-.585,8.09021,8.09021,0,0,0-4.96533.2627,6.23875,6.23875,0,0,0-2.20459,1.52246,7.0028,7.0028,0,0,0-1.44043,2.40723,9.25569,9.25569,0,0,0-.51709,3.1875,9.50946,9.50946,0,0,0,.51709,3.25488,7.15883,7.15883,0,0,0,1.40283,2.40039,5.98764,5.98764,0,0,0,2.085,1.49219,6.44789,6.44789,0,0,0,2.58008.51758,11.30866,11.30866,0,0,0,1.49219-.08984,6.38762,6.38762,0,0,0,1.23-.28516,5.46683,5.46683,0,0,0,1.06543-.50293,6.60439,6.60439,0,0,0,.99707-.75684,1.41485,1.41485,0,0,1,.31543-.21777A.79592.79592,0,0,1,119.55988,29.8399Z"/><path class="cls-1" d="M138.44415,13.26568v3.21h-9.61523v6.01465h7.5752v3.10547h-7.5752v6.13477h9.61523v3.22461H124.764V13.26568Z"/><path class="cls-3" d="M153.30157,26.95318q.2168.51709.42725,1.042.21021-.53906.43506-1.06445.22485-.52588.48-1.00488l6.41992-12.01563a1.67524,1.67524,0,0,1,.24756-.35937.75785.75785,0,0,1,.28516-.19531,1.24563,1.24563,0,0,1,.35254-.0752q.19482-.01465.46484-.01465h3.04492V34.95513h-3.55518V20.94537q0-.38965.02295-.85547.022-.46436.06738-.94434l-6.55518,12.2998a1.71782,1.71782,0,0,1-.585.65234,1.51089,1.51089,0,0,1-.83984.23242h-.55518a1.50975,1.50975,0,0,1-.83984-.23242,1.71782,1.71782,0,0,1-.585-.65234l-6.645-12.34473q.05933.49512.08252.9668.022.47314.02246.87793V34.95513h-3.55518V13.26568h3.04492c.18018,0,.335.00488.46533.01465a1.25305,1.25305,0,0,1,.35254.0752.82713.82713,0,0,1,.29248.19531,1.525,1.525,0,0,1,.25488.35938l6.48,12.04492Q153.0838,26.4356,153.30157,26.95318Z"/><path class="cls-3" d="M188.90363,34.95513h-3.12012a1.3583,1.3583,0,0,1-.8623-.2627,1.48277,1.48277,0,0,1-.4873-.65234l-1.62012-4.4248h-8.98486l-1.62012,4.4248a1.41622,1.41622,0,0,1-.47266.62988,1.32507,1.32507,0,0,1-.8623.28516h-3.13525l8.52-21.68945h4.125Zm-14.04-8.18945h6.915L179.139,19.55084q-.18018-.48047-.39795-1.13281-.21753-.65332-.42725-1.418-.21021.76611-.4126,1.42578-.20215.65918-.39746,1.1543Z"/><path class="cls-3" d="M195.30841,22.35553h.94482a2.46609,2.46609,0,0,0,.94531-.15723,1.59709,1.59709,0,0,0,.64453-.50293l5.98535-7.5752a2.17524,2.17524,0,0,1,.78809-.667,2.52093,2.52093,0,0,1,1.042-.1875H209.139l-7.30566,9.01465a6.4879,6.4879,0,0,1-.66016.70508,2.99463,2.99463,0,0,1-.6748.46484,2.98311,2.98311,0,0,1,.89258.50977,4.75977,4.75977,0,0,1,.77246.84082l7.53027,10.1543h-3.57031a2.21726,2.21726,0,0,1-1.07227-.20215,1.6718,1.6718,0,0,1-.59277-.59277l-6.13477-8.00977a1.82319,1.82319,0,0,0-.6748-.5625,2.61836,2.61836,0,0,0-1.06543-.17285h-1.2749v9.54h-4.03467V13.25006h4.03467Z"/><path class="cls-3" d="M225.75909,13.26568v3.21h-9.61523v6.01465h7.5752v3.10547h-7.5752v6.13477h9.61523v3.22461H212.07941V13.26568Z"/><path class="cls-3" d="M233.42413,26.48053v8.47461H229.389V13.26568h6.61523a13.82516,13.82516,0,0,1,3.80176.457,7.26383,7.26383,0,0,1,2.5957,1.28223A4.95458,4.95458,0,0,1,243.886,16.9776a6.91062,6.91062,0,0,1,.15039,4.59766,6.00381,6.00381,0,0,1-.92969,1.77051,6.2787,6.2787,0,0,1-1.5,1.39453,7.87734,7.87734,0,0,1-2.0332.96,4.00234,4.00234,0,0,1,1.32031,1.24512l5.42969,8.00977h-3.62988a1.76745,1.76745,0,0,1-.89258-.21,1.81935,1.81935,0,0,1-.62207-.59961l-4.56055-6.94531a1.60285,1.60285,0,0,0-.5625-.55469,1.96667,1.96667,0,0,0-.90723-.165Zm0-2.89551h2.51953a6.25916,6.25916,0,0,0,1.9873-.28418,3.85055,3.85055,0,0,0,1.39551-.78809,3.16694,3.16694,0,0,0,.81738-1.19238,4.12822,4.12822,0,0,0,.26953-1.51465,3.08045,3.08045,0,0,0-1.08691-2.53516,5.20465,5.20465,0,0,0-3.32227-.88477h-2.58008Z"/></g></g></svg>